<svg width="54" height="53" viewBox="0 0 54 53" fill="none" xmlns="http://www.w3.org/2000/svg">
<path fill-rule="evenodd" clip-rule="evenodd" d="M29.8685 7.2087C22.0066 8.46878 16 15.2829 16 23.5C16 32.6127 23.3873 40 32.5 40C36.9799 40 41.0427 38.2147 44.0159 35.3167C40.7745 41.3816 34.381 45.5082 27.0236 45.5082C16.3899 45.5082 7.76953 36.8879 7.76953 26.2541C7.76953 15.6204 16.3899 7 27.0236 7C27.9902 7 28.9401 7.07122 29.8685 7.2087Z" fill="#F7F7F7"/>
<path d="M35.5 31L35.9761 31.8447L36.9266 32.0365L36.2704 32.7503L36.3817 33.7135L35.5 33.31L34.6183 33.7135L34.7296 32.7503L34.0734 32.0365L35.0239 31.8447L35.5 31Z" fill="#F7F7F7"/>
<path d="M39 12L39.6348 13.1263L40.9021 13.382L40.0271 14.3337L40.1756 15.618L39 15.08L37.8244 15.618L37.9729 14.3337L37.0979 13.382L38.3652 13.1263L39 12Z" fill="#F7F7F7"/>
<path d="M27 18L28.2696 20.2525L30.8042 20.7639L29.0543 22.6675L29.3511 25.2361L27 24.16L24.6489 25.2361L24.9457 22.6675L23.1958 20.7639L25.7304 20.2525L27 18Z" fill="#F7F7F7"/>
</svg>
