<?xml version="1.0" encoding="UTF-8"?>
<svg id="Capa_1" xmlns="http://www.w3.org/2000/svg" version="1.1" viewBox="0 0 252.2 265">
  <!-- Generator: Adobe Illustrator 29.8.3, SVG Export Plug-In . SVG Version: 2.1.1 Build 3)  -->
  <defs>
    <style>
      .st0 {
        fill: #fff;
      }

      .st1 {
        fill: #202026;
      }
    </style>
  </defs>
  <rect class="st0" x="57.2" y="92.4" width="165.4" height="105.7" rx="32.9" ry="32.9"/>
  <g id="ojos">
    <g id="ojos1">
      <g>
        <path class="st1" d="M125.9,123.8h0c0,8.9-2.2,16.1-4.9,16.1s-4.9-7.2-4.9-16h9.8Z"/>
        <path class="st1" d="M196.9,123.8h0c0,8.9-2.2,16.1-4.9,16.1s-4.9-7.2-4.9-16h9.8,0Z"/>
      </g>
    </g>
  </g>
  <path class="st1" d="M202,210.7c24.4-16.1,37.5-41.7,25-77-4.8-13.3-7.6-25-10.8-35.2-.2-.6-.4-1.1-.5-1.7-3.7-11-8-20.6-16-29.1,2.1-17.2,0-44-3.1-59.4-1.7-8-12.4-9.4-16.7-2.6l-22.5,36.9c-8.6-2.5-17.6-3.8-26.9-3.8s-12.8.2-19.2,1.5h0L73.8,7.3c-6.7-5.9-17.2-2.4-19,6.3-4.5,21.6-11.6,58.9-19,98.1-13.5,70.6-28.3,153.3-28.3,153.3h215.4c-8.9-18.8-17.9-33.9-23.4-42.4-2.6-4-1.4-9.2,2.6-11.9h0ZM111.5,157.4c-14.8,0-26.9-13.8-26.9-30.9v-1.3h53.8v1.3c0,17.1-12,30.9-26.8,30.9ZM167.5,165.1h0l-5.6,6.8c-.7.9-1.9,1.2-3,.9h0c-.6,0-1.1-.5-1.5-1l-5.6-6.8c-1.6-1.9-.2-4.7,2.2-4.7h11.3c.5,0,.9,0,1.2.3h.2c1.5.8,2.2,2.9.9,4.4h0ZM162.4,125.2h53.8v1.3h0c0,17.1-12,30.9-26.8,30.9s-26.9-13.8-26.9-30.9v-1.3Z"/>
</svg>