<?xml version="1.0" encoding="UTF-8"?>
<svg xmlns="http://www.w3.org/2000/svg" version="1.1" viewBox="0 0 252.2 265">
  <!-- Generator: Adobe Illustrator 29.8.3, SVG Export Plug-In . SVG Version: 2.1.1 Build 3)  -->
  <defs>
    <style>
      .st0 {
        fill: #fff;
      }

      .st1 {
        fill: #202026;
      }
    </style>
  </defs>
  <g id="Cuerpo">
    <g id="Capa_6">
      <g id="Capa_4">
        <g id="Cuerpo1" data-name="Cuerpo">
          <path class="st1" d="M208.5,210.7h0c24.4-16.1,37.5-41.7,25-77-4.8-13.3-7.6-25-10.8-35.2-.2-.6-.4-1.1-.5-1.7-3.7-11-8-20.6-16-29.1,2.1-17.2,0-44-3.1-59.4-1.7-8-12.4-9.4-16.7-2.6l-22.5,36.9c-8.6-2.5-17.6-3.8-26.9-3.8s-12.8.2-19.2,1.5L80.2,7.3c-6.7-5.9-17.2-2.4-19,6.3-4.5,21.6-11.6,58.9-19,98.1-13.5,70.6-28.3,153.3-28.3,153.3h215.4c-8.9-18.8-17.9-33.9-23.4-42.4-2.6-4-1.4-9.2,2.6-11.9ZM144.8,126.5c0,17.1-12,30.9-26.8,30.9h0c-14.8,0-26.9-13.8-26.9-30.9v-1.3h53.8v1.3ZM174,165h0c0,0-5.6,6.9-5.6,6.9-.7.9-1.9,1.2-3,.9-.6,0-1.1-.5-1.5-1l-5.6-6.8c-1.6-1.9-.2-4.7,2.2-4.7h11.3c.1,0,.2,0,.4,0,0,0,.2,0,.2,0,.2,0,.4.1.6.3h.2c1.5.8,2.2,2.9.9,4.4ZM168.9,126.5v-1.3h53.7v1.3c0,8.5-3,16.3-7.9,21.9-4.8,5.6-11.5,9-18.9,9-14.8,0-26.9-13.8-26.9-30.9Z"/>
          <path class="st0" d="M144.8,125.2v1.3c0,17.1-12,30.9-26.8,30.9h0c-14.8,0-26.9-13.8-26.9-30.9v-1.3h53.8Z"/>
          <path class="st0" d="M222.6,125.2v1.3c0,8.5-3,16.3-7.9,21.9-4.8,5.6-11.5,9-18.9,9-14.8,0-26.9-13.8-26.9-30.9v-1.3h53.7Z"/>
          <path class="st0" d="M172.1,160.3c0,0,.2,0,.2,0,0,0-.2,0-.2,0Z"/>
          <path class="st0" d="M172.9,160.6c-.2-.2-.4-.2-.6-.3.2,0,.4,0,.6.2h.2c0,0-.2,0-.2,0Z"/>
        </g>
      </g>
    </g>
  </g>
  <g id="Ojo_izq">
    <ellipse class="st1" cx="126.1" cy="127.8" rx="4.2" ry="11.6"/>
  </g>
  <g id="Ojo_der">
    <ellipse class="st1" cx="198" cy="126.8" rx="4.2" ry="11.6"/>
  </g>
  <g id="Nariz">
    <path class="st0" d="M174,165h0c0,0-5.6,6.9-5.6,6.9-.7.9-1.9,1.2-3,.9-.6,0-1.1-.5-1.5-1l-5.6-6.8c-1.6-1.9-.2-4.7,2.2-4.7h11.3c.1,0,.2,0,.4,0,.3,0,.5,0,.9.2h.2c1.5.9,2.2,3,.9,4.5Z"/>
  </g>
</svg>